<?xml version="1.0" encoding="UTF-8" standalone="no"?>
<svg
   xmlns:dc="http://purl.org/dc/elements/1.1/"
   xmlns:cc="http://creativecommons.org/ns#"
   xmlns:rdf="http://www.w3.org/1999/02/22-rdf-syntax-ns#"
   xmlns:svg="http://www.w3.org/2000/svg"
   xmlns="http://www.w3.org/2000/svg"
   xmlns:xlink="http://www.w3.org/1999/xlink"
   xmlns:sodipodi="http://sodipodi.sourceforge.net/DTD/sodipodi-0.dtd"
   xmlns:inkscape="http://www.inkscape.org/namespaces/inkscape"
   width="400"
   height="161"
   viewBox="0 0 105.83333 42.597918"
   version="1.1"
   id="svg2241"
   inkscape:version="1.0.2-2 (e86c870879, 2021-01-15)"
   sodipodi:docname="Summit Pool Solutions Logo.svg">
  <defs
     id="defs2235">
    <linearGradient
       inkscape:collect="always"
       xlink:href="#linearGradient1266"
       id="linearGradient2987"
       gradientUnits="userSpaceOnUse"
       gradientTransform="matrix(0.70535334,0,0,0.80689728,837.90124,119.89615)"
       x1="794.59436"
       y1="406.11755"
       x2="880.90491"
       y2="513.47662" />
    <linearGradient
       inkscape:collect="always"
       id="linearGradient1266">
      <stop
         style="stop-color:#0088d4;stop-opacity:1"
         offset="0"
         id="stop1262" />
      <stop
         style="stop-color:#14d1d4;stop-opacity:1"
         offset="1"
         id="stop1264" />
    </linearGradient>
    <inkscape:path-effect
       effect="bspline"
       id="path-effect2983"
       is_visible="true"
       lpeversion="1"
       weight="33.333333"
       steps="2"
       helper_size="0"
       apply_no_weight="true"
       apply_with_weight="true"
       only_selected="false" />
    <inkscape:path-effect
       effect="bspline"
       id="path-effect2985"
       is_visible="true"
       lpeversion="1"
       weight="33.333333"
       steps="2"
       helper_size="0"
       apply_no_weight="true"
       apply_with_weight="true"
       only_selected="false" />
  </defs>
  <sodipodi:namedview
     id="base"
     pagecolor="#ffffff"
     bordercolor="#666666"
     borderopacity="1.0"
     inkscape:pageopacity="0.0"
     inkscape:pageshadow="2"
     inkscape:zoom="1.979899"
     inkscape:cx="146.55452"
     inkscape:cy="18.808274"
     inkscape:document-units="px"
     inkscape:current-layer="layer1"
     inkscape:document-rotation="0"
     showgrid="false"
     units="px"
     inkscape:window-width="1267"
     inkscape:window-height="967"
     inkscape:window-x="1998"
     inkscape:window-y="26"
     inkscape:window-maximized="0" />
  <metadata
     id="metadata2238">
    <rdf:RDF>
      <cc:Work
         rdf:about="">
        <dc:format>image/svg+xml</dc:format>
        <dc:type
           rdf:resource="http://purl.org/dc/dcmitype/StillImage" />
        <dc:title></dc:title>
      </cc:Work>
    </rdf:RDF>
  </metadata>
  <g
     inkscape:label="Layer 1"
     inkscape:groupmode="layer"
     id="layer1">
    <g
       id="g2981"
       transform="matrix(1.0049197,0,0,1.0049197,-170.01581,-53.178811)">
      <g
         id="g2822"
         transform="matrix(0.41413588,0,0,0.41413588,-402.942,-128.80672)">
        <rect
           style="fill:url(#linearGradient2987);fill-opacity:1;stroke:none;stroke-width:4.99017;stroke-linecap:butt;stroke-linejoin:round;stroke-miterlimit:4;stroke-dasharray:none;stroke-dashoffset:0;stroke-opacity:1"
           id="rect2804"
           width="90.082001"
           height="102.25124"
           x="1381.4922"
           y="438.85818"
           ry="24.621723"
           rx="24.621723" />
        <rect
           style="fill:none;fill-opacity:1;stroke:#000000;stroke-width:3.96933;stroke-linecap:butt;stroke-linejoin:round;stroke-miterlimit:4;stroke-dasharray:none;stroke-dashoffset:0;stroke-opacity:1"
           id="rect2806"
           width="76.638405"
           height="86.991531"
           x="1388.2786"
           y="446.48804"
           ry="19.838007"
           rx="19.838007" />
        <path
           style="fill:none;stroke:#000000;stroke-width:3.96933;stroke-linecap:butt;stroke-linejoin:miter;stroke-miterlimit:4;stroke-dasharray:none;stroke-dashoffset:0;stroke-opacity:1"
           d="m 1387.9052,505.56053 c 3.1942,2.41818 6.3883,4.83637 9.5826,4.83623 3.1942,-1.4e-4 6.3882,-2.41823 9.5823,-2.41811 3.1941,1.2e-4 6.3881,2.41825 9.5824,2.41812 3.1942,-1.3e-4 6.3882,-2.41821 9.5823,-2.41809 3.1941,1.1e-4 6.3882,2.4182 9.5824,2.41808 3.1942,-1.2e-4 6.3883,-2.41824 9.5824,-2.41811 3.194,1.4e-4 6.3881,2.41823 9.5823,2.41811 3.1942,-1.2e-4 6.3883,-2.41824 9.5822,-4.83623"
           id="path2808"
           inkscape:path-effect="#path-effect2983"
           inkscape:original-d="m 1387.9052,505.56053 c 3.1943,2.418 6.3885,4.83616 9.5824,7.25446 3.1944,-2.41835 6.3884,-4.83646 9.5823,-7.25446 3.1944,2.41805 6.3885,4.83616 9.5824,7.25446 3.1944,-2.41835 6.3884,-4.83646 9.5824,-7.25446 3.1944,2.41805 6.3884,4.83616 9.5823,7.25446 3.1944,-2.41835 6.3885,-4.83646 9.5824,-7.25446 3.1944,2.41805 6.3884,4.83616 9.5823,7.25446 3.1944,-2.41835 6.3885,-4.83646 9.5824,-7.25446" />
        <path
           style="fill:none;stroke:#000000;stroke-width:3.96958;stroke-linecap:butt;stroke-linejoin:miter;stroke-miterlimit:4;stroke-dasharray:none;stroke-dashoffset:0;stroke-opacity:1"
           d="m 1387.9052,515.36134 c 3.1942,2.41818 6.3883,4.83637 9.5826,4.83623 3.1942,-1.4e-4 6.3882,-2.41823 9.5823,-2.41811 3.1941,1.3e-4 6.3881,2.41825 9.5824,2.41812 3.1942,-1.3e-4 6.3882,-2.4182 9.5823,-2.41809 3.1941,1.1e-4 6.3882,2.4182 9.5824,2.41808 3.1942,-1.2e-4 6.3883,-2.41824 9.5824,-2.41811 3.194,1.4e-4 6.3881,2.41823 9.5823,2.41811 3.1942,-1.2e-4 6.3883,-2.41824 9.5822,-4.83623"
           id="path2810"
           inkscape:path-effect="#path-effect2985"
           inkscape:original-d="m 1387.9052,515.36134 c 3.1943,2.418 6.3885,4.83616 9.5824,7.25447 3.1944,-2.41836 6.3884,-4.83647 9.5823,-7.25447 3.1944,2.41805 6.3885,4.83616 9.5824,7.25447 3.1944,-2.41836 6.3884,-4.83647 9.5824,-7.25447 3.1944,2.41805 6.3884,4.83616 9.5823,7.25447 3.1944,-2.41836 6.3885,-4.83647 9.5824,-7.25447 3.1944,2.41805 6.3884,4.83616 9.5823,7.25447 3.1944,-2.41836 6.3885,-4.83647 9.5824,-7.25447" />
        <path
           style="fill:none;stroke:#000000;stroke-width:3.96933;stroke-linecap:butt;stroke-linejoin:round;stroke-miterlimit:4;stroke-dasharray:none;stroke-opacity:1"
           d="m 1393.9616,508.51092 21.4186,-24.14646 16.2,19.16344"
           id="path2812"
           sodipodi:nodetypes="ccc" />
        <path
           style="color:#000000;font-style:normal;font-variant:normal;font-weight:normal;font-stretch:normal;font-size:medium;line-height:normal;font-family:sans-serif;font-variant-ligatures:normal;font-variant-position:normal;font-variant-caps:normal;font-variant-numeric:normal;font-variant-alternates:normal;font-variant-east-asian:normal;font-feature-settings:normal;font-variation-settings:normal;text-indent:0;text-align:start;text-decoration:none;text-decoration-line:none;text-decoration-style:solid;text-decoration-color:#000000;letter-spacing:normal;word-spacing:normal;text-transform:none;writing-mode:lr-tb;direction:ltr;text-orientation:mixed;dominant-baseline:auto;baseline-shift:baseline;text-anchor:start;white-space:normal;shape-padding:0;shape-margin:0;inline-size:0;clip-rule:nonzero;display:inline;overflow:visible;visibility:visible;isolation:auto;mix-blend-mode:normal;color-interpolation:sRGB;color-interpolation-filters:linearRGB;solid-color:#000000;solid-opacity:1;vector-effect:none;fill:#000000;fill-opacity:1;fill-rule:nonzero;stroke:none;stroke-width:0.600088;stroke-linecap:butt;stroke-linejoin:round;stroke-miterlimit:4;stroke-dasharray:none;stroke-dashoffset:0;stroke-opacity:1;color-rendering:auto;image-rendering:auto;shape-rendering:auto;text-rendering:auto;enable-background:accumulate;stop-color:#000000"
           d="m 1431.8574,473.12044 c -0.6124,-0.0118 -1.1959,0.25989 -1.5811,0.73604 l -12.1448,15.01276 3.0848,2.49646 10.5918,-13.09177 25.3808,31.8246 3.1024,-2.47419 -1.6826,-2.10976 -1.6825,-2.10975 -1.6826,-2.10976 -1.6825,-2.10976 -1.6825,-2.10976 -1.6826,-2.10976 -3.3651,-4.21952 -13.4604,-16.87807 c -0.3679,-0.46197 -0.9226,-0.73605 -1.5131,-0.74776 z"
           id="path2814"
           sodipodi:nodetypes="cccccccccccccccc" />
        <path
           style="fill:#000000;fill-opacity:1;stroke:none;stroke-width:0.158773px;stroke-linecap:butt;stroke-linejoin:miter;stroke-opacity:1"
           d="m 1435.4025,481.62997 -3.9997,0.61749 2.0138,4.94644 -4.6504,0.11227 8.7562,3.66296 -5.4319,1.50835 10.385,6.16175 -5.0963,3.65179 8.153,-1.31552 0.516,2.14345 8.6615,3.85787 z"
           id="path2816"
           sodipodi:nodetypes="cccccccccccc" />
        <path
           style="fill:#000000;fill-opacity:1;stroke:none;stroke-width:0.158773px;stroke-linecap:butt;stroke-linejoin:miter;stroke-opacity:1"
           d="m 1418.9256,491.09208 -1.3496,1.50835 3.8676,2.04241 -4.463,0.56974 8.0665,4.65887 -4.0972,2.13312 9.3206,1.88056 z"
           id="path2818"
           sodipodi:nodetypes="cccccccc" />
        <path
           id="path2820"
           style="stroke:none;stroke-width:0.239117;stroke-miterlimit:4;stroke-dasharray:none;stroke-opacity:1"
           d="m 1412.0116,463.11793 c 0,0 -1.5209,-1.91147 -2.6816,0.33052 0,0 -0.501,0.8285 -1.0523,0.69242 0,0 0.2905,-2.43511 -2.4704,-2.60054 -2.5943,-0.19778 -4.4796,-1.46386 -5.4426,-2.27768 -0.475,-0.40224 -0.7264,-0.69374 -0.7264,-0.69374 v 0 c 0,0 -0.3498,6.0469 5.676,7.53845 0,0 -1.8531,1.55158 -3.9573,1.77371 0,0 -0.9696,1.93548 1.0523,2.43511 0,0 0.5249,-1.71701 2.85,-1.82708 0,0 3.5421,0.7471 5.1473,-1.82741 0,0 0.4426,-0.51064 0.3323,-2.57286 0,-0.002 0.2221,-0.81848 1.2727,-0.9709 z m -2.9768,0.71108 c -1.4092,-3.64629 -0.2068,-6.08021 -0.2068,-6.08021 -3.6713,2.18421 -3.225,4.01071 -3.225,4.01071 1.0152,0.66338 2.4182,3.82418 3.4318,2.0695 z" />
      </g>
      <g
         id="g2873"
         transform="matrix(1.0560578,0,0,1.0560578,-1458.8828,-312.41779)">
        <g
           fill="#000000"
           fill-opacity="1"
           id="g2830"
           transform="matrix(0.35277777,0,0,0.35277777,1526.8145,305.82871)">
          <g
             transform="translate(151.56157,175.47548)"
             id="g2828">
            <g
               id="g2826">
              <path
                 d="M 11.171875,-46.09375 H 17.625 c 2.726562,0 4.789062,0.703125 6.1875,2.109375 1.40625,1.40625 2.109375,3.46875 2.109375,6.1875 v 6.109375 c 0,0.617188 -0.308594,0.921875 -0.921875,0.921875 h -5.984375 c -0.617187,0 -0.921875,-0.304687 -0.921875,-0.921875 v -4.484375 c 0,-1.539063 -0.773438,-2.3125 -2.3125,-2.3125 h -2.765625 c -1.53125,0 -2.296875,0.773437 -2.296875,2.3125 v 7.9375 l 13.703125,4.5 c 1,0.429687 1.5,1.136719 1.5,2.125 v 13.3125 c 0,2.6875 -0.703125,4.746094 -2.109375,6.171875 C 22.414062,-0.707031 20.351562,0 17.625,0 H 11.171875 C 8.484375,0 6.425781,-0.707031 5,-2.125 3.582031,-3.550781 2.875,-5.609375 2.875,-8.296875 v -6.046875 c 0,-0.613281 0.304688,-0.921875 0.921875,-0.921875 h 6 c 0.613281,0 0.921875,0.308594 0.921875,0.921875 v 4.4375 c 0,1.53125 0.765625,2.296875 2.296875,2.296875 h 2.765625 c 1.539062,0 2.3125,-0.765625 2.3125,-2.296875 v -7.671875 L 4.4375,-22.0625 C 3.394531,-22.40625 2.875,-23.117188 2.875,-24.203125 v -13.59375 c 0,-2.71875 0.707031,-4.78125 2.125,-6.1875 1.425781,-1.40625 3.484375,-2.109375 6.171875,-2.109375 z m 0,0"
                 id="path2824" />
            </g>
          </g>
        </g>
        <g
           fill="#000000"
           fill-opacity="1"
           id="g2838"
           transform="matrix(0.35277777,0,0,0.35277777,1526.8145,305.82871)">
          <g
             transform="translate(180.3653,175.47548)"
             id="g2836">
            <g
               id="g2834">
              <path
                 d="m 19.46875,-46.09375 h 5.296875 c 0.3125,0 0.582031,0.121094 0.8125,0.359375 0.226563,0.230469 0.34375,0.496094 0.34375,0.796875 v 36.640625 c 0,2.6875 -0.703125,4.746094 -2.109375,6.171875 C 22.414062,-0.707031 20.351562,0 17.625,0 H 11.171875 C 8.484375,0 6.425781,-0.707031 5,-2.125 3.582031,-3.550781 2.875,-5.609375 2.875,-8.296875 V -44.9375 c 0,-0.300781 0.113281,-0.566406 0.34375,-0.796875 0.238281,-0.238281 0.507812,-0.359375 0.8125,-0.359375 H 9.5625 c 0.3125,0 0.582031,0.121094 0.8125,0.359375 0.226562,0.230469 0.34375,0.496094 0.34375,0.796875 v 35.03125 c 0,1.53125 0.765625,2.296875 2.296875,2.296875 h 3 c 1.53125,0 2.296875,-0.765625 2.296875,-2.296875 V -44.9375 c 0,-0.300781 0.113281,-0.566406 0.34375,-0.796875 0.238281,-0.238281 0.507812,-0.359375 0.8125,-0.359375 z m 0,0"
                 id="path2832" />
            </g>
          </g>
        </g>
        <g
           fill="#000000"
           fill-opacity="1"
           id="g2847"
           transform="matrix(0.35277777,0,0,0.35277777,1526.8145,305.82871)">
          <g
             transform="translate(209.16902,175.47548)"
             id="g2845">
            <g
               id="g2843">
              <path
                 d="m 26.96875,-46.09375 h 7.59375 c 0.769531,0 1.15625,0.386719 1.15625,1.15625 V -1.15625 C 35.71875,-0.382812 35.332031,0 34.5625,0 H 29.203125 C 28.441406,0 28.0625,-0.382812 28.0625,-1.15625 V -27.078125 H 27.65625 L 21.953125,-1.03125 C 21.796875,-0.34375 21.375,0 20.6875,0 H 17.859375 C 17.203125,0 16.78125,-0.34375 16.59375,-1.03125 l -5.703125,-26.046875 h -0.40625 V -1.15625 C 10.484375,-0.382812 10.097656,0 9.328125,0 H 4.03125 C 3.257812,0 2.875,-0.382812 2.875,-1.15625 V -44.9375 c 0,-0.769531 0.382812,-1.15625 1.15625,-1.15625 h 7.609375 c 0.6875,0 1.109375,0.351562 1.265625,1.046875 l 6.390625,28.6875 6.390625,-28.6875 c 0.195312,-0.695313 0.625,-1.046875 1.28125,-1.046875 z m 0,0"
                 id="path2841" />
            </g>
          </g>
        </g>
        <g
           fill="#000000"
           fill-opacity="1"
           id="g2855"
           transform="matrix(0.35277777,0,0,0.35277777,1526.8145,305.82871)">
          <g
             transform="translate(247.76602,175.47548)"
             id="g2853">
            <g
               id="g2851">
              <path
                 d="m 26.96875,-46.09375 h 7.59375 c 0.769531,0 1.15625,0.386719 1.15625,1.15625 V -1.15625 C 35.71875,-0.382812 35.332031,0 34.5625,0 H 29.203125 C 28.441406,0 28.0625,-0.382812 28.0625,-1.15625 V -27.078125 H 27.65625 L 21.953125,-1.03125 C 21.796875,-0.34375 21.375,0 20.6875,0 H 17.859375 C 17.203125,0 16.78125,-0.34375 16.59375,-1.03125 l -5.703125,-26.046875 h -0.40625 V -1.15625 C 10.484375,-0.382812 10.097656,0 9.328125,0 H 4.03125 C 3.257812,0 2.875,-0.382812 2.875,-1.15625 V -44.9375 c 0,-0.769531 0.382812,-1.15625 1.15625,-1.15625 h 7.609375 c 0.6875,0 1.109375,0.351562 1.265625,1.046875 l 6.390625,28.6875 6.390625,-28.6875 c 0.195312,-0.695313 0.625,-1.046875 1.28125,-1.046875 z m 0,0"
                 id="path2849" />
            </g>
          </g>
        </g>
        <g
           fill="#000000"
           fill-opacity="1"
           id="g2863"
           transform="matrix(0.35277777,0,0,0.35277777,1526.8145,305.82871)">
          <g
             transform="translate(286.36303,175.47548)"
             id="g2861">
            <g
               id="g2859">
              <path
                 d="m 3.796875,-46.09375 h 6 c 0.613281,0 0.921875,0.308594 0.921875,0.921875 v 44.25 C 10.71875,-0.304688 10.410156,0 9.796875,0 h -6 C 3.179688,0 2.875,-0.304688 2.875,-0.921875 v -44.25 c 0,-0.613281 0.304688,-0.921875 0.921875,-0.921875 z m 0,0"
                 id="path2857" />
            </g>
          </g>
        </g>
        <g
           fill="#000000"
           fill-opacity="1"
           id="g2871"
           transform="matrix(0.35277777,0,0,0.35277777,1526.8145,305.82871)">
          <g
             transform="translate(299.95838,175.47548)"
             id="g2869">
            <g
               id="g2867">
              <path
                 d="m 2.65625,-46.09375 h 21.1875 c 0.613281,0 0.921875,0.308594 0.921875,0.921875 v 5.765625 c 0,0.617188 -0.308594,0.921875 -0.921875,0.921875 h -6.671875 v 37.5625 C 17.171875,-0.304688 16.863281,0 16.25,0 h -6 C 9.632812,0 9.328125,-0.304688 9.328125,-0.921875 v -37.5625 H 2.65625 c -0.617188,0 -0.921875,-0.304687 -0.921875,-0.921875 v -5.765625 c 0,-0.613281 0.304687,-0.921875 0.921875,-0.921875 z m 0,0"
                 id="path2865" />
            </g>
          </g>
        </g>
      </g>
      <g
         id="g2979"
         transform="translate(-1368.3498,-292.25928)">
        <g
           fill="#000000"
           fill-opacity="1"
           id="g2881"
           transform="matrix(0.35277777,0,0,0.35277777,1526.8145,305.82871)">
          <g
             transform="translate(151.59373,215.15028)"
             id="g2879">
            <g
               id="g2877">
              <path
                 d="m 1.375,-0.4375 v -21.078125 c 0,-0.289063 0.144531,-0.4375 0.4375,-0.4375 h 6.578125 c 1.300781,0 2.285156,0.335937 2.953125,1 0.664062,0.667969 1,1.652344 1,2.953125 v 6.703125 c 0,1.273437 -0.335938,2.246094 -1,2.921875 -0.667969,0.679688 -1.652344,1.015625 -2.953125,1.015625 H 5.109375 V -0.4375 C 5.109375,-0.144531 4.960938,0 4.671875,0 H 1.8125 C 1.519531,0 1.375,-0.144531 1.375,-0.4375 Z m 3.734375,-10.53125 h 2.40625 c 0.726563,0 1.09375,-0.367188 1.09375,-1.109375 v -5.15625 c 0,-0.726563 -0.367187,-1.09375 -1.09375,-1.09375 h -2.40625 z m 0,0"
                 id="path2875" />
            </g>
          </g>
        </g>
        <g
           fill="#000000"
           fill-opacity="1"
           id="g2889"
           transform="matrix(0.35277777,0,0,0.35277777,1526.8145,305.82871)">
          <g
             transform="translate(165.30824,215.15028)"
             id="g2887">
            <g
               id="g2885">
              <path
                 d="M 1.375,-3.953125 V -15.25 c 0,-1.300781 0.335938,-2.285156 1.015625,-2.953125 0.675781,-0.664063 1.65625,-1 2.9375,-1 h 3.0625 c 1.300781,0 2.285156,0.335937 2.953125,1 0.664062,0.667969 1,1.652344 1,2.953125 v 11.296875 c 0,1.28125 -0.335938,2.261719 -1,2.9375 C 10.675781,-0.335938 9.691406,0 8.390625,0 h -3.0625 C 4.046875,0 3.066406,-0.335938 2.390625,-1.015625 1.710938,-1.691406 1.375,-2.671875 1.375,-3.953125 Z m 4.65625,0.40625 h 1.765625 c 0.726563,0 1.09375,-0.363281 1.09375,-1.09375 V -14.5625 c 0,-0.738281 -0.367187,-1.109375 -1.09375,-1.109375 H 6.03125 c -0.730469,0 -1.09375,0.371094 -1.09375,1.109375 v 9.921875 c 0,0.730469 0.363281,1.09375 1.09375,1.09375 z m 0,0"
                 id="path2883" />
            </g>
          </g>
        </g>
        <g
           fill="#000000"
           fill-opacity="1"
           id="g2897"
           transform="matrix(0.35277777,0,0,0.35277777,1526.8145,305.82871)">
          <g
             transform="translate(179.02275,215.15028)"
             id="g2895">
            <g
               id="g2893">
              <path
                 d="M 1.375,-3.953125 V -15.25 c 0,-1.300781 0.335938,-2.285156 1.015625,-2.953125 0.675781,-0.664063 1.65625,-1 2.9375,-1 h 3.0625 c 1.300781,0 2.285156,0.335937 2.953125,1 0.664062,0.667969 1,1.652344 1,2.953125 v 11.296875 c 0,1.28125 -0.335938,2.261719 -1,2.9375 C 10.675781,-0.335938 9.691406,0 8.390625,0 h -3.0625 C 4.046875,0 3.066406,-0.335938 2.390625,-1.015625 1.710938,-1.691406 1.375,-2.671875 1.375,-3.953125 Z m 4.65625,0.40625 h 1.765625 c 0.726563,0 1.09375,-0.363281 1.09375,-1.09375 V -14.5625 c 0,-0.738281 -0.367187,-1.109375 -1.09375,-1.109375 H 6.03125 c -0.730469,0 -1.09375,0.371094 -1.09375,1.109375 v 9.921875 c 0,0.730469 0.363281,1.09375 1.09375,1.09375 z m 0,0"
                 id="path2891" />
            </g>
          </g>
        </g>
        <g
           fill="#000000"
           fill-opacity="1"
           id="g2905"
           transform="matrix(0.35277777,0,0,0.35277777,1526.8145,305.82871)">
          <g
             transform="translate(192.73726,215.15028)"
             id="g2903">
            <g
               id="g2901">
              <path
                 d="m 5.109375,-3.625 v -15.140625 c 0,-0.289063 -0.148437,-0.4375 -0.4375,-0.4375 H 1.8125 c -0.292969,0 -0.4375,0.148437 -0.4375,0.4375 V -0.4375 C 1.375,-0.144531 1.519531,0 1.8125,0 h 8.71875 c 0.289062,0 0.4375,-0.144531 0.4375,-0.4375 v -2.75 c 0,-0.289062 -0.148438,-0.4375 -0.4375,-0.4375 z m 0,0"
                 id="path2899" />
            </g>
          </g>
        </g>
        <g
           fill="#000000"
           fill-opacity="1"
           id="g2913"
           transform="matrix(0.35277777,0,0,0.35277777,1526.8145,305.82871)">
          <g
             transform="translate(211.93757,215.15028)"
             id="g2911">
            <g
               id="g2909">
              <path
                 d="m 5.328125,-21.953125 h 3.0625 c 1.300781,0 2.285156,0.335937 2.953125,1 0.664062,0.667969 1,1.652344 1,2.953125 v 2.90625 c 0,0.292969 -0.148438,0.4375 -0.4375,0.4375 H 9.046875 c -0.292969,0 -0.4375,-0.144531 -0.4375,-0.4375 v -2.140625 c 0,-0.726563 -0.367187,-1.09375 -1.09375,-1.09375 h -1.3125 c -0.730469,0 -1.09375,0.367187 -1.09375,1.09375 v 3.796875 l 6.53125,2.140625 c 0.46875,0.199219 0.703125,0.539063 0.703125,1.015625 v 6.328125 c 0,1.28125 -0.335938,2.261719 -1,2.9375 C 10.675781,-0.335938 9.691406,0 8.390625,0 h -3.0625 C 4.046875,0 3.066406,-0.335938 2.390625,-1.015625 1.710938,-1.691406 1.375,-2.671875 1.375,-3.953125 v -2.875 c 0,-0.289063 0.144531,-0.4375 0.4375,-0.4375 h 2.859375 c 0.289063,0 0.4375,0.148437 0.4375,0.4375 v 2.109375 c 0,0.730469 0.363281,1.09375 1.09375,1.09375 h 1.3125 c 0.726563,0 1.09375,-0.363281 1.09375,-1.09375 V -8.375 l -6.5,-2.140625 C 1.617188,-10.671875 1.375,-11.007812 1.375,-11.53125 V -18 c 0,-1.300781 0.335938,-2.285156 1.015625,-2.953125 0.675781,-0.664063 1.65625,-1 2.9375,-1 z m 0,0"
                 id="path2907" />
            </g>
          </g>
        </g>
        <g
           fill="#000000"
           fill-opacity="1"
           id="g2921"
           transform="matrix(0.35277777,0,0,0.35277777,1526.8145,305.82871)">
          <g
             transform="translate(225.65208,215.15028)"
             id="g2919">
            <g
               id="g2917">
              <path
                 d="M 1.375,-3.953125 V -15.25 c 0,-1.300781 0.335938,-2.285156 1.015625,-2.953125 0.675781,-0.664063 1.65625,-1 2.9375,-1 h 3.0625 c 1.300781,0 2.285156,0.335937 2.953125,1 0.664062,0.667969 1,1.652344 1,2.953125 v 11.296875 c 0,1.28125 -0.335938,2.261719 -1,2.9375 C 10.675781,-0.335938 9.691406,0 8.390625,0 h -3.0625 C 4.046875,0 3.066406,-0.335938 2.390625,-1.015625 1.710938,-1.691406 1.375,-2.671875 1.375,-3.953125 Z m 4.65625,0.40625 h 1.765625 c 0.726563,0 1.09375,-0.363281 1.09375,-1.09375 V -14.5625 c 0,-0.738281 -0.367187,-1.109375 -1.09375,-1.109375 H 6.03125 c -0.730469,0 -1.09375,0.371094 -1.09375,1.109375 v 9.921875 c 0,0.730469 0.363281,1.09375 1.09375,1.09375 z m 0,0"
                 id="path2915" />
            </g>
          </g>
        </g>
        <g
           fill="#000000"
           fill-opacity="1"
           id="g2929"
           transform="matrix(0.35277777,0,0,0.35277777,1526.8145,305.82871)">
          <g
             transform="translate(239.36659,215.15028)"
             id="g2927">
            <g
               id="g2925">
              <path
                 d="m 5.109375,-3.625 v -15.140625 c 0,-0.289063 -0.148437,-0.4375 -0.4375,-0.4375 H 1.8125 c -0.292969,0 -0.4375,0.148437 -0.4375,0.4375 V -0.4375 C 1.375,-0.144531 1.519531,0 1.8125,0 h 8.71875 c 0.289062,0 0.4375,-0.144531 0.4375,-0.4375 v -2.75 c 0,-0.289062 -0.148438,-0.4375 -0.4375,-0.4375 z m 0,0"
                 id="path2923" />
            </g>
          </g>
        </g>
        <g
           fill="#000000"
           fill-opacity="1"
           id="g2937"
           transform="matrix(0.35277777,0,0,0.35277777,1526.8145,305.82871)">
          <g
             transform="translate(251.70965,215.15028)"
             id="g2935">
            <g
               id="g2933">
              <path
                 d="m 9.28125,-19.203125 h 2.515625 c 0.144531,0 0.269531,0.05859 0.375,0.171875 0.113281,0.105469 0.171875,0.230469 0.171875,0.375 v 14.703125 c 0,1.28125 -0.335938,2.261719 -1,2.9375 C 10.675781,-0.335938 9.691406,0 8.390625,0 h -3.0625 C 4.046875,0 3.066406,-0.335938 2.390625,-1.015625 1.710938,-1.691406 1.375,-2.671875 1.375,-3.953125 V -18.65625 c 0,-0.144531 0.050781,-0.269531 0.15625,-0.375 0.113281,-0.113281 0.242188,-0.171875 0.390625,-0.171875 h 2.625 c 0.15625,0 0.285156,0.05859 0.390625,0.171875 0.113281,0.105469 0.171875,0.230469 0.171875,0.375 v 13.9375 c 0,0.730469 0.363281,1.09375 1.09375,1.09375 H 7.625 c 0.726562,0 1.09375,-0.363281 1.09375,-1.09375 v -13.9375 c 0,-0.144531 0.050781,-0.269531 0.15625,-0.375 0.113281,-0.113281 0.25,-0.171875 0.40625,-0.171875 z m 0,0"
                 id="path2931" />
            </g>
          </g>
        </g>
        <g
           fill="#000000"
           fill-opacity="1"
           id="g2945"
           transform="matrix(0.35277777,0,0,0.35277777,1526.8145,305.82871)">
          <g
             transform="translate(265.42416,215.15028)"
             id="g2943">
            <g
               id="g2941">
              <path
                 d="M 11.359375,-19.203125 H 1.265625 c -0.292969,0 -0.4375,0.148437 -0.4375,0.4375 v 2.734375 c 0,0.304688 0.144531,0.453125 0.4375,0.453125 H 4.4375 V -0.4375 C 4.4375,-0.144531 4.585938,0 4.890625,0 h 2.84375 c 0.289063,0 0.4375,-0.144531 0.4375,-0.4375 v -15.140625 h 3.1875 c 0.289063,0 0.4375,-0.148437 0.4375,-0.453125 v -2.734375 c 0,-0.289063 -0.148437,-0.4375 -0.4375,-0.4375 z m 0,0"
                 id="path2939" />
            </g>
          </g>
        </g>
        <g
           fill="#000000"
           fill-opacity="1"
           id="g2953"
           transform="matrix(0.35277777,0,0,0.35277777,1526.8145,305.82871)">
          <g
             transform="translate(278.0415,215.15028)"
             id="g2951">
            <g
               id="g2949">
              <path
                 d="m 1.8125,0 h 2.859375 c 0.289063,0 0.4375,-0.144531 0.4375,-0.4375 v -18.328125 c 0,-0.289063 -0.148437,-0.4375 -0.4375,-0.4375 H 1.8125 c -0.292969,0 -0.4375,0.148437 -0.4375,0.4375 V -0.4375 C 1.375,-0.144531 1.519531,0 1.8125,0 Z m 0,0"
                 id="path2947" />
            </g>
          </g>
        </g>
        <g
           fill="#000000"
           fill-opacity="1"
           id="g2961"
           transform="matrix(0.35277777,0,0,0.35277777,1526.8145,305.82871)">
          <g
             transform="translate(284.51475,215.15028)"
             id="g2959">
            <g
               id="g2957">
              <path
                 d="M 1.375,-3.953125 V -15.25 c 0,-1.300781 0.335938,-2.285156 1.015625,-2.953125 0.675781,-0.664063 1.65625,-1 2.9375,-1 h 3.0625 c 1.300781,0 2.285156,0.335937 2.953125,1 0.664062,0.667969 1,1.652344 1,2.953125 v 11.296875 c 0,1.28125 -0.335938,2.261719 -1,2.9375 C 10.675781,-0.335938 9.691406,0 8.390625,0 h -3.0625 C 4.046875,0 3.066406,-0.335938 2.390625,-1.015625 1.710938,-1.691406 1.375,-2.671875 1.375,-3.953125 Z m 4.65625,0.40625 h 1.765625 c 0.726563,0 1.09375,-0.363281 1.09375,-1.09375 V -14.5625 c 0,-0.738281 -0.367187,-1.109375 -1.09375,-1.109375 H 6.03125 c -0.730469,0 -1.09375,0.371094 -1.09375,1.109375 v 9.921875 c 0,0.730469 0.363281,1.09375 1.09375,1.09375 z m 0,0"
                 id="path2955" />
            </g>
          </g>
        </g>
        <g
           fill="#000000"
           fill-opacity="1"
           id="g2969"
           transform="matrix(0.35277777,0,0,0.35277777,1526.8145,305.82871)">
          <g
             transform="translate(298.22926,215.15028)"
             id="g2967">
            <g
               id="g2965">
              <path
                 d="m 10.0625,-19.203125 h 2.59375 c 0.289062,0 0.4375,0.148437 0.4375,0.4375 V -0.4375 C 13.09375,-0.144531 12.945312,0 12.65625,0 h -2.171875 c -0.21875,0 -0.386719,-0.117188 -0.5,-0.359375 L 4.828125,-10.84375 V -0.4375 C 4.828125,-0.144531 4.679688,0 4.390625,0 H 1.8125 C 1.519531,0 1.375,-0.144531 1.375,-0.4375 v -18.328125 c 0,-0.289063 0.144531,-0.4375 0.4375,-0.4375 h 2.171875 c 0.21875,0 0.378906,0.121094 0.484375,0.359375 L 9.625,-8.375 v -10.390625 c 0,-0.289063 0.144531,-0.4375 0.4375,-0.4375 z m 0,0"
                 id="path2963" />
            </g>
          </g>
        </g>
        <g
           fill="#000000"
           fill-opacity="1"
           id="g2977"
           transform="matrix(0.35277777,0,0,0.35277777,1526.8145,305.82871)">
          <g
             transform="translate(312.68435,215.15028)"
             id="g2975">
            <g
               id="g2973">
              <path
                 d="m 5.328125,-19.203125 h 3.0625 c 1.300781,0 2.285156,0.335937 2.953125,1 0.664062,0.667969 1,1.652344 1,2.953125 v 1.8125 c 0,0.292969 -0.148438,0.4375 -0.4375,0.4375 H 9.140625 c -0.292969,0 -0.4375,-0.144531 -0.4375,-0.4375 v -1.15625 c 0,-0.726562 -0.371094,-1.09375 -1.109375,-1.09375 h -1.5 C 5.363281,-15.6875 5,-15.320312 5,-14.59375 v 2.328125 l 6.640625,2.140625 c 0.46875,0.167969 0.703125,0.507812 0.703125,1.015625 v 5.15625 c 0,1.28125 -0.335938,2.261719 -1,2.9375 C 10.675781,-0.335938 9.691406,0 8.390625,0 h -3.0625 C 4.046875,0 3.066406,-0.335938 2.390625,-1.015625 1.710938,-1.691406 1.375,-2.671875 1.375,-3.953125 v -1.78125 c 0,-0.289063 0.144531,-0.4375 0.4375,-0.4375 h 2.765625 c 0.289063,0 0.4375,0.148437 0.4375,0.4375 v 1.15625 c 0,0.730469 0.367187,1.09375 1.109375,1.09375 h 1.46875 c 0.738281,0 1.109375,-0.363281 1.109375,-1.09375 v -2.78125 L 2.109375,-9.5 C 1.617188,-9.65625 1.375,-9.992188 1.375,-10.515625 V -15.25 c 0,-1.300781 0.335938,-2.285156 1.015625,-2.953125 0.675781,-0.664063 1.65625,-1 2.9375,-1 z m 0,0"
                 id="path2971" />
            </g>
          </g>
        </g>
      </g>
    </g>
  </g>
</svg>
